<svg width="158" height="58" viewBox="0 0 158 58" fill="none" xmlns="http://www.w3.org/2000/svg">
<g filter="url(#filter0_di)">
<rect x="4" width="150" height="50" rx="25" fill="#5D6C89"/>
<path d="M28.0566 20.31C28.4566 20.31 28.8166 20.39 29.1366 20.55C29.4566 20.71 29.6166 20.95 29.6166 21.27C29.6166 21.55 29.5366 21.78 29.3766 21.96C29.2166 22.12 29.0266 22.2 28.8066 22.2C28.7066 22.2 28.5066 22.15 28.2066 22.05C27.9266 21.95 27.6566 21.9 27.3966 21.9C26.6566 21.9 25.9166 22.19 25.1766 22.77C24.4566 23.33 23.8566 24.06 23.3766 24.96C22.9166 25.86 22.6866 26.77 22.6866 27.69V35.1C22.6866 35.36 22.5966 35.58 22.4166 35.76C22.2566 35.92 22.0466 36 21.7866 36C21.5266 36 21.3066 35.92 21.1266 35.76C20.9666 35.58 20.8866 35.36 20.8866 35.1V21.66C20.8866 21.4 20.9666 21.19 21.1266 21.03C21.3066 20.85 21.5266 20.76 21.7866 20.76C22.0466 20.76 22.2566 20.85 22.4166 21.03C22.5966 21.19 22.6866 21.4 22.6866 21.66V24.3C23.1466 23.16 23.8366 22.22 24.7566 21.48C25.6966 20.72 26.7966 20.33 28.0566 20.31ZM45.9157 28.32C45.9157 29.82 45.5857 31.18 44.9257 32.4C44.2657 33.62 43.3557 34.58 42.1957 35.28C41.0357 35.96 39.7457 36.3 38.3257 36.3C36.9057 36.3 35.6157 35.96 34.4557 35.28C33.2957 34.58 32.3857 33.62 31.7257 32.4C31.0657 31.18 30.7357 29.82 30.7357 28.32C30.7357 26.82 31.0657 25.46 31.7257 24.24C32.3857 23.02 33.2957 22.06 34.4557 21.36C35.6157 20.66 36.9057 20.31 38.3257 20.31C39.7457 20.31 41.0357 20.66 42.1957 21.36C43.3557 22.06 44.2657 23.02 44.9257 24.24C45.5857 25.46 45.9157 26.82 45.9157 28.32ZM44.1157 28.32C44.1157 27.12 43.8657 26.04 43.3657 25.08C42.8657 24.12 42.1657 23.37 41.2657 22.83C40.3857 22.27 39.4057 21.99 38.3257 21.99C37.2457 21.99 36.2657 22.27 35.3857 22.83C34.5057 23.37 33.8057 24.12 33.2857 25.08C32.7857 26.04 32.5357 27.12 32.5357 28.32C32.5357 29.5 32.7857 30.57 33.2857 31.53C33.8057 32.49 34.5057 33.25 35.3857 33.81C36.2657 34.35 37.2457 34.62 38.3257 34.62C39.4057 34.62 40.3857 34.35 41.2657 33.81C42.1657 33.27 42.8657 32.52 43.3657 31.56C43.8657 30.6 44.1157 29.52 44.1157 28.32ZM52.5975 22.41V32.46C52.5975 33.22 52.7375 33.74 53.0175 34.02C53.2975 34.28 53.6675 34.41 54.1275 34.41C54.2475 34.41 54.3975 34.39 54.5775 34.35C54.7575 34.29 54.8975 34.26 54.9975 34.26C55.1775 34.26 55.3275 34.34 55.4475 34.5C55.5875 34.64 55.6575 34.81 55.6575 35.01C55.6575 35.29 55.4975 35.53 55.1775 35.73C54.8575 35.91 54.4775 36 54.0375 36C53.4975 36 53.0175 35.95 52.5975 35.85C52.1775 35.75 51.7675 35.45 51.3675 34.95C50.9875 34.45 50.7975 33.65 50.7975 32.55V22.41H48.6075C48.3675 22.41 48.1575 22.33 47.9775 22.17C47.8175 22.01 47.7375 21.81 47.7375 21.57C47.7375 21.33 47.8175 21.13 47.9775 20.97C48.1575 20.81 48.3675 20.73 48.6075 20.73H50.7975V17.4C50.7975 17.14 50.8775 16.93 51.0375 16.77C51.2175 16.59 51.4375 16.5 51.6975 16.5C51.9575 16.5 52.1675 16.59 52.3275 16.77C52.5075 16.93 52.5975 17.14 52.5975 17.4V20.73H55.5975C55.8175 20.73 56.0075 20.82 56.1675 21C56.3475 21.18 56.4375 21.38 56.4375 21.6C56.4375 21.84 56.3575 22.04 56.1975 22.2C56.0375 22.34 55.8375 22.41 55.5975 22.41H52.5975ZM72.2136 20.67C72.4736 20.67 72.6836 20.76 72.8436 20.94C73.0236 21.12 73.1136 21.34 73.1136 21.6V35.1C73.1136 35.36 73.0236 35.58 72.8436 35.76C72.6836 35.92 72.4736 36 72.2136 36C71.9536 36 71.7336 35.92 71.5536 35.76C71.3936 35.58 71.3136 35.36 71.3136 35.1V33.09C70.8136 33.99 70.0636 34.75 69.0636 35.37C68.0636 35.99 66.9736 36.3 65.7936 36.3C64.4536 36.3 63.2436 35.95 62.1636 35.25C61.1036 34.55 60.2636 33.59 59.6436 32.37C59.0436 31.15 58.7436 29.78 58.7436 28.26C58.7436 26.74 59.0536 25.38 59.6736 24.18C60.2936 22.96 61.1336 22.01 62.1936 21.33C63.2736 20.65 64.4636 20.31 65.7636 20.31C66.9636 20.31 68.0636 20.6 69.0636 21.18C70.0636 21.76 70.8136 22.52 71.3136 23.46V21.6C71.3136 21.34 71.3936 21.12 71.5536 20.94C71.7336 20.76 71.9536 20.67 72.2136 20.67ZM65.9736 34.62C67.0136 34.62 67.9436 34.35 68.7636 33.81C69.6036 33.25 70.2536 32.49 70.7136 31.53C71.1936 30.55 71.4336 29.46 71.4336 28.26C71.4336 27.1 71.1936 26.04 70.7136 25.08C70.2536 24.12 69.6036 23.37 68.7636 22.83C67.9436 22.27 67.0136 21.99 65.9736 21.99C64.9336 21.99 63.9936 22.26 63.1536 22.8C62.3336 23.34 61.6836 24.09 61.2036 25.05C60.7436 25.99 60.5136 27.06 60.5136 28.26C60.5136 29.46 60.7436 30.55 61.2036 31.53C61.6636 32.49 62.3036 33.25 63.1236 33.81C63.9636 34.35 64.9136 34.62 65.9736 34.62ZM115.22 20.55C117.02 20.55 118.34 21.11 119.18 22.23C120.04 23.33 120.47 24.79 120.47 26.61V35.1C120.47 35.36 120.38 35.58 120.2 35.76C120.04 35.92 119.83 36 119.57 36C119.31 36 119.09 35.92 118.91 35.76C118.75 35.58 118.67 35.36 118.67 35.1V26.7C118.67 25.38 118.35 24.31 117.71 23.49C117.09 22.65 116.12 22.23 114.8 22.23C113.96 22.23 113.16 22.43 112.4 22.83C111.66 23.23 111.06 23.78 110.6 24.48C110.14 25.16 109.91 25.9 109.91 26.7V35.1C109.91 35.36 109.82 35.58 109.64 35.76C109.48 35.92 109.27 36 109.01 36C108.75 36 108.53 35.92 108.35 35.76C108.19 35.58 108.11 35.36 108.11 35.1V26.61C108.11 25.31 107.81 24.26 107.21 23.46C106.61 22.64 105.67 22.23 104.39 22.23C103.57 22.23 102.79 22.43 102.05 22.83C101.33 23.23 100.74 23.77 100.28 24.45C99.8402 25.11 99.6202 25.83 99.6202 26.61V35.1C99.6202 35.36 99.5302 35.58 99.3502 35.76C99.1902 35.92 98.9802 36 98.7202 36C98.4602 36 98.2402 35.92 98.0602 35.76C97.9002 35.58 97.8202 35.36 97.8202 35.1V21.66C97.8202 21.4 97.9002 21.19 98.0602 21.03C98.2402 20.85 98.4602 20.76 98.7202 20.76C98.9802 20.76 99.1902 20.85 99.3502 21.03C99.5302 21.19 99.6202 21.4 99.6202 21.66V23.4C100.16 22.58 100.89 21.9 101.81 21.36C102.73 20.82 103.7 20.55 104.72 20.55C105.88 20.55 106.88 20.83 107.72 21.39C108.56 21.95 109.16 22.77 109.52 23.85C109.94 22.97 110.71 22.2 111.83 21.54C112.95 20.88 114.08 20.55 115.22 20.55ZM138.143 27.45C138.143 27.69 138.053 27.9 137.873 28.08C137.693 28.24 137.483 28.32 137.243 28.32H125.903C125.903 29.52 126.143 30.6 126.623 31.56C127.123 32.5 127.823 33.25 128.723 33.81C129.643 34.35 130.723 34.62 131.963 34.62C132.923 34.62 133.783 34.42 134.543 34.02C135.303 33.62 135.913 33.11 136.373 32.49C136.593 32.31 136.803 32.22 137.003 32.22C137.203 32.22 137.383 32.3 137.543 32.46C137.703 32.62 137.783 32.8 137.783 33C137.783 33.22 137.683 33.43 137.483 33.63C136.843 34.41 136.033 35.05 135.053 35.55C134.093 36.05 133.073 36.3 131.993 36.3C130.453 36.3 129.093 35.97 127.913 35.31C126.733 34.65 125.813 33.73 125.153 32.55C124.493 31.35 124.163 29.97 124.163 28.41C124.163 26.77 124.483 25.34 125.123 24.12C125.783 22.88 126.653 21.94 127.733 21.3C128.813 20.64 129.963 20.31 131.183 20.31C132.383 20.31 133.503 20.59 134.543 21.15C135.603 21.71 136.463 22.53 137.123 23.61C137.783 24.69 138.123 25.97 138.143 27.45ZM131.183 22.05C130.023 22.05 128.943 22.45 127.943 23.25C126.963 24.05 126.333 25.2 126.053 26.7H136.283V26.46C136.183 25.56 135.883 24.78 135.383 24.12C134.883 23.44 134.253 22.93 133.493 22.59C132.753 22.23 131.983 22.05 131.183 22.05Z" fill="#FBF6F3"/>
<path d="M78.0204 40.8C77.7804 40.8 77.5804 40.72 77.4204 40.56C77.2604 40.42 77.1804 40.23 77.1804 39.99C77.1804 39.75 77.2504 39.56 77.3904 39.42C77.5504 39.28 77.7604 39.21 78.0204 39.21H92.8704C93.1104 39.21 93.3104 39.28 93.4704 39.42C93.6304 39.58 93.7104 39.78 93.7104 40.02C93.7104 40.24 93.6304 40.42 93.4704 40.56C93.3104 40.72 93.1104 40.8 92.8704 40.8H78.0204Z" fill="#FEB06A"/>
</g>
<defs>
<filter id="filter0_di" x="0" y="0" width="158" height="58" filterUnits="userSpaceOnUse" color-interpolation-filters="sRGB">
<feFlood flood-opacity="0" result="BackgroundImageFix"/>
<feColorMatrix in="SourceAlpha" type="matrix" values="0 0 0 0 0 0 0 0 0 0 0 0 0 0 0 0 0 0 127 0"/>
<feOffset dy="4"/>
<feGaussianBlur stdDeviation="2"/>
<feColorMatrix type="matrix" values="0 0 0 0 0 0 0 0 0 0 0 0 0 0 0 0 0 0 0.25 0"/>
<feBlend mode="normal" in2="BackgroundImageFix" result="effect1_dropShadow"/>
<feBlend mode="normal" in="SourceGraphic" in2="effect1_dropShadow" result="shape"/>
<feColorMatrix in="SourceAlpha" type="matrix" values="0 0 0 0 0 0 0 0 0 0 0 0 0 0 0 0 0 0 127 0" result="hardAlpha"/>
<feOffset/>
<feGaussianBlur stdDeviation="1.5"/>
<feComposite in2="hardAlpha" operator="arithmetic" k2="-1" k3="1"/>
<feColorMatrix type="matrix" values="0 0 0 0 0.984314 0 0 0 0 0.964706 0 0 0 0 0.952941 0 0 0 1 0"/>
<feBlend mode="normal" in2="shape" result="effect2_innerShadow"/>
</filter>
</defs>
</svg>
