<svg width="183" height="113" viewBox="0 0 183 113" fill="none" xmlns="http://www.w3.org/2000/svg">
<g filter="url(#filter0_dif)">
<rect x="4" y="1" width="100" height="20" rx="10" fill="#FBF6F3"/>
</g>
<g filter="url(#filter1_dif)">
<rect x="4" y="85" width="100" height="20" rx="10" fill="#FBF6F3"/>
</g>
<g filter="url(#filter2_di)">
<rect x="29" y="28" width="150" height="50" rx="25" fill="#5D6C89"/>
<path d="M53.0566 48.31C53.4566 48.31 53.8166 48.39 54.1366 48.55C54.4566 48.71 54.6166 48.95 54.6166 49.27C54.6166 49.55 54.5366 49.78 54.3766 49.96C54.2166 50.12 54.0266 50.2 53.8066 50.2C53.7066 50.2 53.5066 50.15 53.2066 50.05C52.9266 49.95 52.6566 49.9 52.3966 49.9C51.6566 49.9 50.9166 50.19 50.1766 50.77C49.4566 51.33 48.8566 52.06 48.3766 52.96C47.9166 53.86 47.6866 54.77 47.6866 55.69V63.1C47.6866 63.36 47.5966 63.58 47.4166 63.76C47.2566 63.92 47.0466 64 46.7866 64C46.5266 64 46.3066 63.92 46.1266 63.76C45.9666 63.58 45.8866 63.36 45.8866 63.1V49.66C45.8866 49.4 45.9666 49.19 46.1266 49.03C46.3066 48.85 46.5266 48.76 46.7866 48.76C47.0466 48.76 47.2566 48.85 47.4166 49.03C47.5966 49.19 47.6866 49.4 47.6866 49.66V52.3C48.1466 51.16 48.8366 50.22 49.7566 49.48C50.6966 48.72 51.7966 48.33 53.0566 48.31ZM70.9157 56.32C70.9157 57.82 70.5857 59.18 69.9257 60.4C69.2657 61.62 68.3557 62.58 67.1957 63.28C66.0357 63.96 64.7457 64.3 63.3257 64.3C61.9057 64.3 60.6157 63.96 59.4557 63.28C58.2957 62.58 57.3857 61.62 56.7257 60.4C56.0657 59.18 55.7357 57.82 55.7357 56.32C55.7357 54.82 56.0657 53.46 56.7257 52.24C57.3857 51.02 58.2957 50.06 59.4557 49.36C60.6157 48.66 61.9057 48.31 63.3257 48.31C64.7457 48.31 66.0357 48.66 67.1957 49.36C68.3557 50.06 69.2657 51.02 69.9257 52.24C70.5857 53.46 70.9157 54.82 70.9157 56.32ZM69.1157 56.32C69.1157 55.12 68.8657 54.04 68.3657 53.08C67.8657 52.12 67.1657 51.37 66.2657 50.83C65.3857 50.27 64.4057 49.99 63.3257 49.99C62.2457 49.99 61.2657 50.27 60.3857 50.83C59.5057 51.37 58.8057 52.12 58.2857 53.08C57.7857 54.04 57.5357 55.12 57.5357 56.32C57.5357 57.5 57.7857 58.57 58.2857 59.53C58.8057 60.49 59.5057 61.25 60.3857 61.81C61.2657 62.35 62.2457 62.62 63.3257 62.62C64.4057 62.62 65.3857 62.35 66.2657 61.81C67.1657 61.27 67.8657 60.52 68.3657 59.56C68.8657 58.6 69.1157 57.52 69.1157 56.32ZM77.5975 50.41V60.46C77.5975 61.22 77.7375 61.74 78.0175 62.02C78.2975 62.28 78.6675 62.41 79.1275 62.41C79.2475 62.41 79.3975 62.39 79.5775 62.35C79.7575 62.29 79.8975 62.26 79.9975 62.26C80.1775 62.26 80.3275 62.34 80.4475 62.5C80.5875 62.64 80.6575 62.81 80.6575 63.01C80.6575 63.29 80.4975 63.53 80.1775 63.73C79.8575 63.91 79.4775 64 79.0375 64C78.4975 64 78.0175 63.95 77.5975 63.85C77.1775 63.75 76.7675 63.45 76.3675 62.95C75.9875 62.45 75.7975 61.65 75.7975 60.55V50.41H73.6075C73.3675 50.41 73.1575 50.33 72.9775 50.17C72.8175 50.01 72.7375 49.81 72.7375 49.57C72.7375 49.33 72.8175 49.13 72.9775 48.97C73.1575 48.81 73.3675 48.73 73.6075 48.73H75.7975V45.4C75.7975 45.14 75.8775 44.93 76.0375 44.77C76.2175 44.59 76.4375 44.5 76.6975 44.5C76.9575 44.5 77.1675 44.59 77.3275 44.77C77.5075 44.93 77.5975 45.14 77.5975 45.4V48.73H80.5975C80.8175 48.73 81.0075 48.82 81.1675 49C81.3475 49.18 81.4375 49.38 81.4375 49.6C81.4375 49.84 81.3575 50.04 81.1975 50.2C81.0375 50.34 80.8375 50.41 80.5975 50.41H77.5975ZM97.2136 48.67C97.4736 48.67 97.6836 48.76 97.8436 48.94C98.0236 49.12 98.1136 49.34 98.1136 49.6V63.1C98.1136 63.36 98.0236 63.58 97.8436 63.76C97.6836 63.92 97.4736 64 97.2136 64C96.9536 64 96.7336 63.92 96.5536 63.76C96.3936 63.58 96.3136 63.36 96.3136 63.1V61.09C95.8136 61.99 95.0636 62.75 94.0636 63.37C93.0636 63.99 91.9736 64.3 90.7936 64.3C89.4536 64.3 88.2436 63.95 87.1636 63.25C86.1036 62.55 85.2636 61.59 84.6436 60.37C84.0436 59.15 83.7436 57.78 83.7436 56.26C83.7436 54.74 84.0536 53.38 84.6736 52.18C85.2936 50.96 86.1336 50.01 87.1936 49.33C88.2736 48.65 89.4636 48.31 90.7636 48.31C91.9636 48.31 93.0636 48.6 94.0636 49.18C95.0636 49.76 95.8136 50.52 96.3136 51.46V49.6C96.3136 49.34 96.3936 49.12 96.5536 48.94C96.7336 48.76 96.9536 48.67 97.2136 48.67ZM90.9736 62.62C92.0136 62.62 92.9436 62.35 93.7636 61.81C94.6036 61.25 95.2536 60.49 95.7136 59.53C96.1936 58.55 96.4336 57.46 96.4336 56.26C96.4336 55.1 96.1936 54.04 95.7136 53.08C95.2536 52.12 94.6036 51.37 93.7636 50.83C92.9436 50.27 92.0136 49.99 90.9736 49.99C89.9336 49.99 88.9936 50.26 88.1536 50.8C87.3336 51.34 86.6836 52.09 86.2036 53.05C85.7436 53.99 85.5136 55.06 85.5136 56.26C85.5136 57.46 85.7436 58.55 86.2036 59.53C86.6636 60.49 87.3036 61.25 88.1236 61.81C88.9636 62.35 89.9136 62.62 90.9736 62.62ZM140.22 48.55C142.02 48.55 143.34 49.11 144.18 50.23C145.04 51.33 145.47 52.79 145.47 54.61V63.1C145.47 63.36 145.38 63.58 145.2 63.76C145.04 63.92 144.83 64 144.57 64C144.31 64 144.09 63.92 143.91 63.76C143.75 63.58 143.67 63.36 143.67 63.1V54.7C143.67 53.38 143.35 52.31 142.71 51.49C142.09 50.65 141.12 50.23 139.8 50.23C138.96 50.23 138.16 50.43 137.4 50.83C136.66 51.23 136.06 51.78 135.6 52.48C135.14 53.16 134.91 53.9 134.91 54.7V63.1C134.91 63.36 134.82 63.58 134.64 63.76C134.48 63.92 134.27 64 134.01 64C133.75 64 133.53 63.92 133.35 63.76C133.19 63.58 133.11 63.36 133.11 63.1V54.61C133.11 53.31 132.81 52.26 132.21 51.46C131.61 50.64 130.67 50.23 129.39 50.23C128.57 50.23 127.79 50.43 127.05 50.83C126.33 51.23 125.74 51.77 125.28 52.45C124.84 53.11 124.62 53.83 124.62 54.61V63.1C124.62 63.36 124.53 63.58 124.35 63.76C124.19 63.92 123.98 64 123.72 64C123.46 64 123.24 63.92 123.06 63.76C122.9 63.58 122.82 63.36 122.82 63.1V49.66C122.82 49.4 122.9 49.19 123.06 49.03C123.24 48.85 123.46 48.76 123.72 48.76C123.98 48.76 124.19 48.85 124.35 49.03C124.53 49.19 124.62 49.4 124.62 49.66V51.4C125.16 50.58 125.89 49.9 126.81 49.36C127.73 48.82 128.7 48.55 129.72 48.55C130.88 48.55 131.88 48.83 132.72 49.39C133.56 49.95 134.16 50.77 134.52 51.85C134.94 50.97 135.71 50.2 136.83 49.54C137.95 48.88 139.08 48.55 140.22 48.55ZM163.143 55.45C163.143 55.69 163.053 55.9 162.873 56.08C162.693 56.24 162.483 56.32 162.243 56.32H150.903C150.903 57.52 151.143 58.6 151.623 59.56C152.123 60.5 152.823 61.25 153.723 61.81C154.643 62.35 155.723 62.62 156.963 62.62C157.923 62.62 158.783 62.42 159.543 62.02C160.303 61.62 160.913 61.11 161.373 60.49C161.593 60.31 161.803 60.22 162.003 60.22C162.203 60.22 162.383 60.3 162.543 60.46C162.703 60.62 162.783 60.8 162.783 61C162.783 61.22 162.683 61.43 162.483 61.63C161.843 62.41 161.033 63.05 160.053 63.55C159.093 64.05 158.073 64.3 156.993 64.3C155.453 64.3 154.093 63.97 152.913 63.31C151.733 62.65 150.813 61.73 150.153 60.55C149.493 59.35 149.163 57.97 149.163 56.41C149.163 54.77 149.483 53.34 150.123 52.12C150.783 50.88 151.653 49.94 152.733 49.3C153.813 48.64 154.963 48.31 156.183 48.31C157.383 48.31 158.503 48.59 159.543 49.15C160.603 49.71 161.463 50.53 162.123 51.61C162.783 52.69 163.123 53.97 163.143 55.45ZM156.183 50.05C155.023 50.05 153.943 50.45 152.943 51.25C151.963 52.05 151.333 53.2 151.053 54.7H161.283V54.46C161.183 53.56 160.883 52.78 160.383 52.12C159.883 51.44 159.253 50.93 158.493 50.59C157.753 50.23 156.983 50.05 156.183 50.05Z" fill="#FBF6F3"/>
<path d="M103.02 68.8C102.78 68.8 102.58 68.72 102.42 68.56C102.26 68.42 102.18 68.23 102.18 67.99C102.18 67.75 102.25 67.56 102.39 67.42C102.55 67.28 102.76 67.21 103.02 67.21H117.87C118.11 67.21 118.31 67.28 118.47 67.42C118.63 67.58 118.71 67.78 118.71 68.02C118.71 68.24 118.63 68.42 118.47 68.56C118.31 68.72 118.11 68.8 117.87 68.8H103.02Z" fill="#FEB06A"/>
</g>
<defs>
<filter id="filter0_dif" x="0" y="0" width="108" height="29" filterUnits="userSpaceOnUse" color-interpolation-filters="sRGB">
<feFlood flood-opacity="0" result="BackgroundImageFix"/>
<feColorMatrix in="SourceAlpha" type="matrix" values="0 0 0 0 0 0 0 0 0 0 0 0 0 0 0 0 0 0 127 0"/>
<feOffset dy="4"/>
<feGaussianBlur stdDeviation="2"/>
<feColorMatrix type="matrix" values="0 0 0 0 0 0 0 0 0 0 0 0 0 0 0 0 0 0 0.25 0"/>
<feBlend mode="normal" in2="BackgroundImageFix" result="effect1_dropShadow"/>
<feBlend mode="normal" in="SourceGraphic" in2="effect1_dropShadow" result="shape"/>
<feColorMatrix in="SourceAlpha" type="matrix" values="0 0 0 0 0 0 0 0 0 0 0 0 0 0 0 0 0 0 127 0" result="hardAlpha"/>
<feOffset/>
<feGaussianBlur stdDeviation="9"/>
<feComposite in2="hardAlpha" operator="arithmetic" k2="-1" k3="1"/>
<feColorMatrix type="matrix" values="0 0 0 0 0 0 0 0 0 0 0 0 0 0 0 0 0 0 0.1 0"/>
<feBlend mode="normal" in2="shape" result="effect2_innerShadow"/>
<feGaussianBlur stdDeviation="0.5" result="effect3_foregroundBlur"/>
</filter>
<filter id="filter1_dif" x="0" y="84" width="108" height="29" filterUnits="userSpaceOnUse" color-interpolation-filters="sRGB">
<feFlood flood-opacity="0" result="BackgroundImageFix"/>
<feColorMatrix in="SourceAlpha" type="matrix" values="0 0 0 0 0 0 0 0 0 0 0 0 0 0 0 0 0 0 127 0"/>
<feOffset dy="4"/>
<feGaussianBlur stdDeviation="2"/>
<feColorMatrix type="matrix" values="0 0 0 0 0 0 0 0 0 0 0 0 0 0 0 0 0 0 0.25 0"/>
<feBlend mode="normal" in2="BackgroundImageFix" result="effect1_dropShadow"/>
<feBlend mode="normal" in="SourceGraphic" in2="effect1_dropShadow" result="shape"/>
<feColorMatrix in="SourceAlpha" type="matrix" values="0 0 0 0 0 0 0 0 0 0 0 0 0 0 0 0 0 0 127 0" result="hardAlpha"/>
<feOffset/>
<feGaussianBlur stdDeviation="9"/>
<feComposite in2="hardAlpha" operator="arithmetic" k2="-1" k3="1"/>
<feColorMatrix type="matrix" values="0 0 0 0 0 0 0 0 0 0 0 0 0 0 0 0 0 0 0.1 0"/>
<feBlend mode="normal" in2="shape" result="effect2_innerShadow"/>
<feGaussianBlur stdDeviation="0.5" result="effect3_foregroundBlur"/>
</filter>
<filter id="filter2_di" x="25" y="28" width="158" height="58" filterUnits="userSpaceOnUse" color-interpolation-filters="sRGB">
<feFlood flood-opacity="0" result="BackgroundImageFix"/>
<feColorMatrix in="SourceAlpha" type="matrix" values="0 0 0 0 0 0 0 0 0 0 0 0 0 0 0 0 0 0 127 0"/>
<feOffset dy="4"/>
<feGaussianBlur stdDeviation="2"/>
<feColorMatrix type="matrix" values="0 0 0 0 0 0 0 0 0 0 0 0 0 0 0 0 0 0 0.25 0"/>
<feBlend mode="normal" in2="BackgroundImageFix" result="effect1_dropShadow"/>
<feBlend mode="normal" in="SourceGraphic" in2="effect1_dropShadow" result="shape"/>
<feColorMatrix in="SourceAlpha" type="matrix" values="0 0 0 0 0 0 0 0 0 0 0 0 0 0 0 0 0 0 127 0" result="hardAlpha"/>
<feOffset/>
<feGaussianBlur stdDeviation="1.5"/>
<feComposite in2="hardAlpha" operator="arithmetic" k2="-1" k3="1"/>
<feColorMatrix type="matrix" values="0 0 0 0 0.984314 0 0 0 0 0.964706 0 0 0 0 0.952941 0 0 0 1 0"/>
<feBlend mode="normal" in2="shape" result="effect2_innerShadow"/>
</filter>
</defs>
</svg>
